<!--?xml version="1.0" encoding="utf-8"?-->
<!-- Generator: Adobe Illustrator 18.1.1, SVG Export Plug-In . SVG Version: 6.00 Build 0)  -->

<svg version="1.1" id="_x31_0" xmlns="http://www.w3.org/2000/svg" xmlns:xlink="http://www.w3.org/1999/xlink" x="0px" y="0px" viewBox="0 0 512 512" style="width: 128px; height: 128px; opacity: 1;" xml:space="preserve">
<style type="text/css">
	.st0{fill:#374149;}
</style>
<g>
	<path class="st0" d="M159.362,211.468L49.908,143.484c-27.687-17.223-55.171,4.27-49.042,37.195l14.05,75.355l-14.05,75.289
		c-6.129,32.922,21.355,54.414,49.042,37.196l109.454-67.989c-0.066-0.343-0.066-0.758-0.066-1.102v-86.859
		C159.295,212.225,159.295,211.812,159.362,211.468z" style="fill: rgb(75, 75, 75);"></path>
	<path class="st0" d="M497.08,256.034l14.054-75.355c6.129-32.926-21.355-54.418-49.042-37.195l-109.454,67.984
		c0.066,0.344,0.066,0.758,0.066,1.102v86.859c0,0.344,0,0.758-0.066,1.102l109.454,67.989
		c27.687,17.218,55.171-4.274,49.042-37.196L497.08,256.034z" style="fill: rgb(75, 75, 75);"></path>
	<path class="st0" d="M289.443,185.362h-66.886c-15.153,0-27.551,12.398-27.551,27.551v18.734v48.703v18.668
		c0,15.152,12.398,27.55,27.551,27.55h66.886c15.153,0,27.551-12.398,27.551-27.55v-18.668v-48.703v-18.734
		C316.994,197.76,304.596,185.362,289.443,185.362z" style="fill: rgb(75, 75, 75);"></path>
</g>
</svg>
